<svg width="30" height="30" viewBox="0 0 30 30" fill="none" xmlns="http://www.w3.org/2000/svg">
<path d="M8.18115 13.6338C8.18115 12.5945 8.34795 11.5986 8.65353 10.684C8.78415 10.2932 9.20707 10.0823 9.59809 10.2129C9.98913 10.3434 10.2003 10.7661 10.0698 11.157C9.81545 11.9181 9.67399 12.7541 9.67399 13.6338C9.67399 17.3584 12.1416 20.1231 14.8997 20.1231C17.6577 20.1231 20.1251 17.3584 20.1251 13.6338C20.1251 12.7541 19.9836 11.9179 19.7294 11.1567C19.5989 10.7659 19.8101 10.3434 20.2009 10.2129C20.5921 10.0823 21.0149 10.2934 21.1455 10.6843C21.4511 11.5988 21.6181 12.5945 21.6181 13.6338C21.6181 17.9012 18.7381 21.6151 14.8997 21.6153C11.0612 21.6153 8.18115 17.9012 8.18115 13.6338Z" fill="url(#paint0_linear_1_361)"/>
<path d="M14.9005 20.1227C16.2584 20.1227 17.0696 21.2327 17.4829 22.0115C17.7067 22.4333 17.8635 22.8487 17.9639 23.1543C18.0145 23.3083 18.0517 23.4377 18.0768 23.5303C18.0893 23.5765 18.0987 23.6139 18.1053 23.6405C18.1087 23.6539 18.1113 23.6649 18.1132 23.6729C18.1142 23.6767 18.1149 23.6801 18.1154 23.6827C18.1157 23.6839 18.116 23.6849 18.1162 23.6859C18.1163 23.6863 18.1166 23.6867 18.1167 23.6871V23.6877C18.1162 23.6879 18.097 23.6925 17.389 23.8533L18.1169 23.6881C18.2083 24.0899 17.9563 24.4897 17.5543 24.5809C17.1527 24.6723 16.7532 24.4213 16.6613 24.0201L16.6561 23.9991C16.6519 23.9823 16.6452 23.9553 16.6357 23.9201C16.6165 23.8495 16.5865 23.7455 16.5452 23.6199C16.4618 23.3659 16.3358 23.0349 16.1638 22.7107C15.7852 21.9973 15.3521 21.6148 14.9005 21.6148C14.4489 21.6148 14.0157 21.9973 13.6372 22.7107C13.4652 23.0349 13.3391 23.3659 13.2557 23.6199C13.2144 23.7455 13.1847 23.8495 13.1655 23.9201C13.156 23.9553 13.149 23.9823 13.1448 23.9991C13.1427 24.0075 13.1414 24.0135 13.1406 24.0169C13.1402 24.0185 13.1399 24.0201 13.1399 24.0201C13.0479 24.4213 12.6482 24.6723 12.2466 24.5809C11.8447 24.4895 11.5929 24.0899 11.6843 23.6881L12.4122 23.8533C11.69 23.6893 11.6843 23.6877 11.6843 23.6877L11.6845 23.6871C11.6846 23.6867 11.6846 23.6863 11.6847 23.6859C11.685 23.6849 11.6852 23.6839 11.6855 23.6827C11.6861 23.6801 11.687 23.6767 11.688 23.6729C11.6898 23.6649 11.6923 23.6539 11.6956 23.6405C11.7022 23.6139 11.7119 23.5765 11.7244 23.5303C11.7495 23.4377 11.7867 23.3083 11.8373 23.1543C11.9377 22.8487 12.0944 22.4333 12.3183 22.0115C12.7316 21.2327 13.5427 20.1227 14.9005 20.1227Z" fill="url(#paint1_linear_1_361)"/>
<path d="M20.8546 11.4915C20.6524 11.6614 20.3756 11.7119 20.1266 11.6245L20.374 10.9206L20.8546 11.4915ZM19.0218 5.37517C19.2238 5.20529 19.5007 5.15475 19.7498 5.24217L19.5024 5.94611C19.7365 5.27967 19.7493 5.24421 19.7503 5.24241L19.7525 5.24315C19.7534 5.24349 19.7545 5.24373 19.7557 5.24413C19.7581 5.24499 19.7609 5.24617 19.7641 5.24733C19.7704 5.24967 19.7784 5.25263 19.7877 5.25621C19.8064 5.26337 19.831 5.27309 19.8607 5.28551C19.9199 5.31037 20.0002 5.34637 20.095 5.39463C20.2838 5.49069 20.5372 5.63871 20.8026 5.85031C21.3334 6.27383 21.9388 6.97603 22.1244 8.03555C22.3098 9.09381 21.9814 9.96545 21.63 10.5489C21.4542 10.8409 21.268 11.0695 21.1244 11.2265C21.0522 11.3054 20.9894 11.3675 20.9428 11.4117C20.9194 11.4338 20.9 11.4517 20.885 11.4649C20.8776 11.4716 20.8712 11.4773 20.866 11.4817C20.8636 11.4838 20.8614 11.4857 20.8594 11.4873C20.8584 11.4882 20.8576 11.4889 20.8568 11.4896C20.8564 11.4899 20.8558 11.4902 20.8554 11.4905L20.855 11.491L20.374 10.9206L20.126 11.6243L20.1238 11.6235C20.1228 11.6232 20.1218 11.6227 20.1206 11.6223C20.1182 11.6215 20.1154 11.6205 20.1122 11.6194C20.106 11.617 20.098 11.6141 20.0886 11.6105C20.07 11.6033 20.0454 11.5936 20.016 11.5812C19.9567 11.5563 19.8765 11.5203 19.7816 11.4721C19.5927 11.376 19.3391 11.228 19.0738 11.0164C18.5429 10.5929 17.9377 9.89045 17.752 8.83089C17.5666 7.77265 17.895 6.90099 18.2463 6.31755C18.4221 6.02559 18.6084 5.79721 18.752 5.64021C18.8242 5.56127 18.8869 5.49899 18.9336 5.45473C18.957 5.43261 18.9766 5.41481 18.9915 5.40153C18.9989 5.39493 19.0052 5.38941 19.0103 5.38503C19.0128 5.38283 19.015 5.38075 19.0169 5.37911C19.0179 5.37829 19.0188 5.37757 19.0196 5.37689C19.02 5.37657 19.0205 5.37621 19.0208 5.37591L19.0213 5.37567C19.0223 5.37637 19.0411 5.39825 19.4913 5.93307L19.0218 5.37517ZM20.6232 10.2171C20.6234 10.2172 20.6238 10.2173 20.6242 10.2174L20.6226 10.2169L20.6232 10.2171ZM19.6699 6.87125C19.6223 6.93579 19.5732 7.00789 19.5255 7.08703C19.2967 7.46709 19.1176 7.97365 19.2227 8.57349C19.3275 9.17201 19.6656 9.57883 20.0054 9.84987C20.0742 9.90475 20.142 9.95307 20.2062 9.99519C20.2538 9.93061 20.3032 9.85861 20.3508 9.77943C20.5796 9.39935 20.7588 8.89279 20.6536 8.29295C20.5488 7.69449 20.2108 7.28761 19.871 7.01657C19.8021 6.96165 19.7342 6.91341 19.6699 6.87125Z" fill="url(#paint2_linear_1_361)"/>
<path d="M23.7122 11.1757C24.069 11.1566 24.3768 11.1848 24.5972 11.2181C24.708 11.2348 24.7984 11.2532 24.864 11.2681C24.897 11.2756 24.9238 11.2823 24.944 11.2876C24.954 11.2902 24.9626 11.2923 24.9694 11.2942L24.9814 11.2977L24.9836 11.2984C24.9836 11.2996 24.976 11.3269 24.7754 12.0149L24.9844 11.2986C25.2376 11.3725 25.433 11.5745 25.4984 11.8299L24.7754 12.0149C25.4782 11.8351 25.498 11.8303 25.4986 11.8304L25.4988 11.8312C25.499 11.8316 25.499 11.8321 25.4992 11.8326C25.4994 11.8337 25.4998 11.8349 25.5002 11.8361C25.5008 11.8385 25.5012 11.8414 25.502 11.8447C25.5038 11.8514 25.506 11.8599 25.5082 11.8701C25.5128 11.8904 25.5186 11.9175 25.525 11.9506C25.5378 12.0169 25.5536 12.1084 25.5672 12.2203C25.5942 12.4431 25.6138 12.7535 25.5858 13.112C25.5302 13.828 25.2794 14.7757 24.4762 15.5694C23.6716 16.3644 22.726 16.5968 22.012 16.6352C21.6554 16.6543 21.3478 16.6259 21.1274 16.5926C21.0166 16.5758 20.926 16.5575 20.8604 16.5426C20.8276 16.5351 20.8008 16.5286 20.7806 16.5233C20.7704 16.5207 20.762 16.5183 20.7552 16.5164C20.7518 16.5155 20.7488 16.5147 20.7464 16.514C20.7452 16.5136 20.7438 16.5133 20.7428 16.513C20.7424 16.5129 20.7418 16.5129 20.7414 16.5128L20.741 16.5125L20.9492 15.796L20.2258 15.9802L20.2256 15.9797C20.2256 15.9793 20.2252 15.9788 20.2252 15.9783C20.2248 15.9772 20.2248 15.9761 20.2244 15.9748C20.2238 15.9723 20.223 15.9693 20.2222 15.9659C20.2206 15.9592 20.2186 15.9507 20.2162 15.9406C20.2116 15.9203 20.206 15.8932 20.1996 15.86C20.1866 15.7937 20.171 15.7023 20.1574 15.5903C20.1304 15.3676 20.1106 15.0572 20.1384 14.6987C20.194 13.9827 20.445 13.0349 21.248 12.2413C22.0526 11.4462 22.9982 11.2141 23.7122 11.1757ZM20.7402 16.5123C20.4868 16.4384 20.2914 16.2365 20.2258 15.981L20.9492 15.796L20.7402 16.5123ZM24.1048 12.6661C24.01 12.6609 23.9046 12.6599 23.7924 12.6659C23.3534 12.6895 22.8378 12.8195 22.387 13.2191L22.2978 13.3026C21.8256 13.7693 21.6644 14.3336 21.627 14.8145C21.6178 14.9332 21.6162 15.0444 21.6194 15.1443C21.7144 15.1495 21.8196 15.151 21.9318 15.145C22.4002 15.1199 22.9558 14.9736 23.4266 14.5083C23.899 14.0416 24.06 13.4773 24.0974 12.9964C24.1068 12.8776 24.108 12.7662 24.1048 12.6661ZM21.1554 15.0787C21.155 15.0786 21.1544 15.0785 21.1544 15.0785C21.1536 15.0783 21.153 15.0782 21.153 15.0782C21.153 15.0782 21.1538 15.0783 21.1554 15.0787Z" fill="url(#paint3_linear_1_361)"/>
<path d="M19.9357 17.7353C20.5494 17.507 21.4336 17.3518 22.4002 17.7225C23.3676 18.0935 23.9182 18.7996 24.2186 19.3802C24.3688 19.6705 24.4614 19.938 24.517 20.1346C24.545 20.2334 24.5642 20.3162 24.5766 20.377C24.583 20.4074 24.5876 20.4324 24.591 20.4516C24.5926 20.4612 24.5938 20.4692 24.595 20.4758L24.5966 20.4878C24.5968 20.4884 24.5968 20.4888 24.5968 20.4892L24.5972 20.49C24.597 20.4904 24.5832 20.4926 23.8584 20.5974L24.3312 21.1748L24.3308 21.1752C24.3304 21.1756 24.33 21.176 24.3296 21.1762C24.3288 21.1768 24.3278 21.1776 24.3268 21.1784C24.325 21.18 24.3228 21.1818 24.3202 21.1838C24.315 21.188 24.3086 21.193 24.301 21.1988C24.2856 21.2108 24.265 21.2262 24.2398 21.2444C24.1896 21.281 24.1196 21.3292 24.032 21.3836C23.8582 21.4916 23.6092 21.6274 23.302 21.7418C22.6884 21.97 21.804 22.1252 20.8374 21.7546C19.8701 21.3836 19.3194 20.6772 19.019 20.0966C18.8688 19.8064 18.7762 19.5391 18.7206 19.3425C18.6927 19.2436 18.6735 19.1609 18.661 19.1001C18.6547 19.0697 18.65 19.0444 18.6467 19.0252C18.645 19.0157 18.6438 19.0076 18.6427 19.0011L18.641 18.989C18.6409 18.9885 18.6408 18.988 18.6408 18.9876L18.6405 18.9871C18.6405 18.9867 18.6405 18.9863 19.3793 18.8794C18.9126 18.3105 18.9063 18.3024 18.9064 18.3021L18.9069 18.3016C18.9073 18.3013 18.9078 18.3012 18.9081 18.3008C18.9089 18.3002 18.9099 18.2994 18.9109 18.2986C18.9128 18.2971 18.915 18.2952 18.9175 18.2932C18.9227 18.2891 18.9291 18.2839 18.9367 18.2779C18.9521 18.2661 18.9726 18.2507 18.9978 18.2324C19.0482 18.1959 19.1181 18.1475 19.2056 18.0932C19.3795 17.9852 19.6286 17.8496 19.9357 17.7353ZM24.5972 20.4906C24.6346 20.7492 24.534 21.0088 24.3318 21.1746L23.8584 20.5974L24.5972 20.4906ZM21.8656 19.1156C21.3392 18.9138 20.8466 18.9888 20.4568 19.1339C20.385 19.1606 20.3182 19.1899 20.2568 19.2188C20.2824 19.2801 20.311 19.345 20.3454 19.4112C20.5344 19.7766 20.8466 20.1596 21.3722 20.3612C21.8984 20.563 22.3912 20.4882 22.781 20.3432C22.8526 20.3166 22.9192 20.287 22.9806 20.258C22.9552 20.1968 22.9266 20.1318 22.8924 20.0656C22.7032 19.7002 22.3912 19.3172 21.8656 19.1156ZM19.8507 19.458C19.8491 19.4593 19.8483 19.46 19.8483 19.46C19.8484 19.4599 19.849 19.4596 19.8497 19.459C19.8501 19.4587 19.8502 19.4584 19.8507 19.458C19.851 19.4578 19.8514 19.4575 19.8517 19.4573L19.8522 19.457L19.852 19.4568C19.8515 19.4571 19.8511 19.4577 19.8507 19.458ZM19.3793 18.8794L18.6405 18.9863C18.6031 18.7277 18.7038 18.4683 18.9059 18.3026L19.3793 18.8794Z" fill="url(#paint4_linear_1_361)"/>
<path d="M7.39966 17.7225C8.36634 17.3518 9.25076 17.507 9.8644 17.7353C10.1715 17.8496 10.4206 17.9852 10.5946 18.0932C10.682 18.1475 10.752 18.1959 10.8023 18.2324C10.8275 18.2507 10.848 18.2661 10.8634 18.278C10.8711 18.2839 10.8775 18.2891 10.8826 18.2932C10.8852 18.2952 10.8874 18.2971 10.8893 18.2986C10.8902 18.2994 10.8912 18.3002 10.892 18.3009C10.8924 18.3012 10.8929 18.3013 10.8932 18.3016L10.8937 18.3021C10.8939 18.3024 10.8872 18.3108 10.4208 18.8794L11.1596 18.9871L11.1594 18.9876C11.1593 18.988 11.1592 18.9886 11.1591 18.9891L11.1574 19.0011C11.1564 19.0076 11.1551 19.0157 11.1534 19.0253C11.1501 19.0444 11.1454 19.0697 11.1392 19.1001C11.1266 19.1609 11.1075 19.2437 11.0795 19.3425C11.0239 19.5391 10.9313 19.8064 10.7811 20.0966C10.4807 20.6772 9.93026 21.3836 8.96298 21.7546C7.99628 22.1254 7.11188 21.97 6.49824 21.7418C6.19108 21.6274 5.94204 21.4916 5.76808 21.3836C5.6806 21.3292 5.61068 21.281 5.56034 21.2444C5.53514 21.2262 5.51458 21.2108 5.49922 21.1988C5.49158 21.193 5.48514 21.188 5.48 21.1838C5.47746 21.1818 5.47528 21.18 5.47336 21.1784C5.47238 21.1776 5.47144 21.1768 5.47064 21.1762C5.47024 21.176 5.46978 21.1756 5.46942 21.1752L5.46892 21.1748C5.46932 21.1738 5.48626 21.1528 5.9418 20.5974C5.21684 20.4926 5.20324 20.4904 5.20302 20.49L5.20328 20.4892C5.20334 20.4888 5.20344 20.4884 5.20352 20.4878L5.20524 20.4758C5.20628 20.4692 5.20754 20.4612 5.20918 20.4516C5.2125 20.4324 5.21722 20.4074 5.22348 20.377C5.236 20.3162 5.25514 20.2334 5.28312 20.1346C5.33872 19.938 5.4313 19.6706 5.58154 19.3802C5.8819 18.7997 6.43242 18.0936 7.39966 17.7225ZM5.9418 20.5974L5.46842 21.1746C5.2662 21.0088 5.16558 20.7492 5.20302 20.4906L5.9418 20.5974ZM9.34346 19.1339C8.95356 18.9888 8.46094 18.9138 7.93464 19.1157C7.40904 19.3173 7.09688 19.7003 6.9078 20.0656C6.87354 20.1318 6.84476 20.1968 6.81932 20.258C6.88076 20.287 6.9474 20.3166 7.01918 20.3432C7.40908 20.4882 7.9017 20.563 8.42798 20.3612C8.95362 20.1596 9.26576 19.7767 9.45484 19.4112C9.4891 19.345 9.51764 19.2801 9.54306 19.2189C9.4817 19.19 9.41514 19.1606 9.34346 19.1339ZM9.94794 19.4568L9.94842 19.4573C9.94872 19.4575 9.94892 19.4578 9.94916 19.458C9.94964 19.4584 9.95006 19.4587 9.9504 19.459C9.9511 19.4596 9.95174 19.4599 9.95188 19.46C9.95188 19.46 9.95082 19.4593 9.94916 19.458C9.94872 19.4577 9.94848 19.4572 9.94794 19.4568ZM10.8942 18.3026C11.0964 18.4683 11.197 18.7277 11.1596 18.9863L10.4208 18.8794L10.8942 18.3026Z" fill="url(#paint5_linear_1_361)"/>
<path d="M5.20232 11.2181C5.42278 11.1848 5.73035 11.1566 6.08699 11.1757C6.80101 11.2141 7.74674 11.4463 8.55124 12.2413C9.35434 13.0349 9.60519 13.9827 9.66089 14.6987C9.68875 15.0572 9.6689 15.3676 9.64192 15.5903C9.62836 15.7023 9.61292 15.7937 9.60002 15.86C9.59356 15.8932 9.58761 15.9203 9.58301 15.9406C9.58071 15.9507 9.57874 15.9592 9.5771 15.9659C9.5763 15.9693 9.57576 15.9723 9.57514 15.9748C9.57482 15.9761 9.57439 15.9772 9.57415 15.9783C9.57401 15.9787 9.57402 15.9793 9.5739 15.9797L9.57366 15.9802L8.8504 15.796L9.05862 16.5125L9.05789 16.5128C9.05743 16.5129 9.05691 16.5129 9.05641 16.513C9.05537 16.5133 9.05421 16.5136 9.05295 16.514C9.05045 16.5147 9.04743 16.5155 9.04409 16.5164C9.03737 16.5183 9.029 16.5207 9.01896 16.5233C8.9988 16.5286 8.97198 16.5351 8.93912 16.5426C8.87348 16.5575 8.783 16.5758 8.67224 16.5926C8.45176 16.6259 8.14401 16.6543 7.78731 16.6352C7.07327 16.5968 6.12758 16.3644 5.32308 15.5694C4.51997 14.7757 4.2691 13.8279 4.21342 13.112C4.18556 12.7535 4.20542 12.4431 4.2324 12.2203C4.24596 12.1084 4.26163 12.0169 4.27453 11.9506C4.28097 11.9175 4.28669 11.8904 4.29129 11.8701C4.29357 11.86 4.29557 11.8514 4.29721 11.8447C4.29799 11.8414 4.29881 11.8385 4.29941 11.8361C4.29973 11.8349 4.29991 11.8336 4.30015 11.8326L4.30089 11.8304C4.30277 11.8306 4.33801 11.8394 5.02415 12.0149L4.30089 11.8299C4.36631 11.5744 4.56189 11.3725 4.81519 11.2986L5.02415 12.0149C4.81521 11.2986 4.81562 11.2985 4.81594 11.2984L4.81641 11.2981C4.81687 11.298 4.8174 11.2978 4.8179 11.2977C4.81894 11.2974 4.82011 11.297 4.82135 11.2967C4.82385 11.296 4.82685 11.2951 4.83021 11.2942C4.83691 11.2924 4.84533 11.2902 4.85535 11.2876C4.87549 11.2823 4.90238 11.2756 4.9352 11.2681C5.00086 11.2532 5.0915 11.2348 5.20232 11.2181ZM9.57341 15.981C9.50797 16.2365 9.31243 16.4384 9.05911 16.5123L8.8504 15.796L9.57341 15.981ZM6.00689 12.6659C5.89461 12.6599 5.78936 12.6609 5.69444 12.6661C5.6913 12.7662 5.69283 12.8776 5.70207 12.9964C5.73947 13.4773 5.90062 14.0416 6.37284 14.5083C6.8437 14.9735 7.39915 15.1199 7.86741 15.145C7.97969 15.151 8.08494 15.1495 8.17988 15.1443C8.183 15.0444 8.18171 14.9331 8.17247 14.8145C8.13509 14.3336 7.97392 13.7693 7.50172 13.3026C7.03086 12.8373 6.47517 12.691 6.00689 12.6659ZM8.64511 15.0785C8.64487 15.0786 8.64448 15.0786 8.64414 15.0787C8.64542 15.0784 8.64617 15.0783 8.64635 15.0782C8.64623 15.0783 8.64579 15.0783 8.64511 15.0785ZM5.22967 12.7319C5.23001 12.7318 5.23047 12.732 5.23091 12.7319L5.23139 12.7314C5.23071 12.7316 5.23015 12.7318 5.22967 12.7319ZM5.74742 12.1994L5.74766 12.1987C5.74774 12.1983 5.74783 12.1979 5.74791 12.1977L5.74742 12.1994Z" fill="url(#paint6_linear_1_361)"/>
<path d="M9.67311 11.6245C9.42403 11.7119 9.14717 11.6613 8.94517 11.4915L9.42569 10.9205L9.67311 11.6245ZM10.0501 5.24214C10.2992 5.15476 10.5758 5.2053 10.7778 5.37514L10.2973 5.94608C10.7519 5.4061 10.7768 5.37702 10.7783 5.37564L10.7791 5.37588C10.7794 5.37616 10.7797 5.37656 10.7801 5.37686C10.7808 5.37754 10.7818 5.37828 10.7828 5.37908C10.7847 5.38072 10.7869 5.3828 10.7894 5.385C10.7945 5.3894 10.8009 5.39486 10.8084 5.4015C10.8233 5.41478 10.8429 5.43254 10.8663 5.4547C10.913 5.49896 10.9755 5.56124 11.0477 5.64018C11.1913 5.79716 11.3775 6.02556 11.5533 6.31752C11.9046 6.90096 12.2331 7.77262 12.0477 8.83086C11.862 9.89046 11.2568 10.5928 10.7258 11.0164C10.4606 11.228 10.2072 11.376 10.0184 11.472C9.92343 11.5203 9.84321 11.5563 9.78399 11.5811C9.75435 11.5936 9.72973 11.6033 9.71105 11.6105C9.70171 11.614 9.69375 11.617 9.68739 11.6193C9.68423 11.6205 9.68141 11.6214 9.67901 11.6223C9.67785 11.6227 9.67679 11.6232 9.67581 11.6235L9.67359 11.6242L9.42569 10.9205L8.94467 11.491L8.94419 11.4905C8.94383 11.4902 8.94335 11.4899 8.94295 11.4895C8.94217 11.4889 8.94117 11.4881 8.94023 11.4873C8.93833 11.4857 8.93609 11.4838 8.93359 11.4816C8.92849 11.4772 8.92233 11.4715 8.91485 11.4649C8.89993 11.4516 8.88035 11.4338 8.85695 11.4117C8.81021 11.3674 8.74753 11.3054 8.67533 11.2265C8.53171 11.0694 8.34549 10.8409 8.16967 10.5489C7.81837 9.96542 7.48993 9.09376 7.67533 8.03552C7.86101 6.97598 8.46651 6.2738 8.99741 5.85028C9.26269 5.63866 9.51605 5.49066 9.70489 5.3946C9.79985 5.3463 9.88001 5.31034 9.93925 5.28548C9.96889 5.27304 9.99351 5.26334 10.0122 5.25618C10.0215 5.25262 10.0293 5.24962 10.0356 5.2473C10.0388 5.24614 10.0416 5.24496 10.044 5.2441C10.0452 5.24368 10.0464 5.24348 10.0474 5.24312C10.0479 5.24296 10.0483 5.24276 10.0487 5.24262L10.0494 5.24238C10.0502 5.24362 10.0602 5.27136 10.2635 5.85028L10.0501 5.24214ZM10.1295 6.87122C10.0653 6.91336 9.99745 6.96166 9.92865 7.01654C9.58891 7.28758 9.25089 7.69446 9.14601 8.29292C9.04091 8.89276 9.22001 9.39932 9.44885 9.7794C9.49651 9.85852 9.54565 9.93062 9.59327 9.99516C9.65755 9.953 9.72547 9.90478 9.79435 9.84984C10.1341 9.5788 10.4721 9.17198 10.577 8.57346C10.6821 7.97362 10.503 7.46706 10.2741 7.087C10.2265 7.0078 10.1771 6.9358 10.1295 6.87122Z" fill="url(#paint7_linear_1_361)"/>
<path d="M19.5025 5.94611C19.5025 5.94611 21.0987 6.50627 21.3891 8.16437L21.4017 8.24171C21.6393 9.85653 20.3741 10.9206 20.3741 10.9206L20.3049 10.8932C20.0009 10.7656 18.7862 10.1747 18.502 8.77917L18.4875 8.70231C18.1978 7.04925 19.4946 5.95279 19.5025 5.94611Z" fill="url(#paint8_linear_1_361)"/>
<path d="M21.7732 12.772C23.0484 11.5116 24.7756 12.0148 24.7756 12.0148C24.7788 12.0274 25.2226 13.7829 23.9518 15.0387L23.8916 15.0966C22.7838 16.1328 21.3678 15.8928 21.026 15.8151L20.9494 15.7959C20.9494 15.7959 20.5118 14.0869 21.7148 12.8313L21.7732 12.772ZM22.8456 15.3459V15.3454L22.8454 15.3444C22.8454 15.3449 22.8454 15.3454 22.8456 15.3459Z" fill="url(#paint9_linear_1_361)"/>
<path d="M19.3782 18.8793C19.3866 18.8725 20.6438 17.8483 22.1316 18.419C23.6216 18.9904 23.8562 20.5905 23.8572 20.5973L23.8 20.6407C23.5428 20.8273 22.4498 21.5331 21.1734 21.0835L21.1036 21.0577C19.6107 20.4851 19.3782 18.8793 19.3782 18.8793Z" fill="url(#paint10_linear_1_361)"/>
<path d="M7.66762 18.419C9.15566 17.8483 10.4129 18.8726 10.4212 18.8793L10.4083 18.9495C10.3435 19.2647 10.0021 20.5565 8.6957 21.0577C7.2027 21.6303 5.94214 20.5973 5.94214 20.5973C5.94312 20.5907 6.17036 19.0402 7.59836 18.4466L7.66762 18.419Z" fill="url(#paint11_linear_1_361)"/>
<path d="M5.02447 12.0148C5.02591 12.0144 6.75182 11.5121 8.02666 12.772C9.30205 14.0323 8.85071 15.7959 8.85071 15.7959L8.77383 15.8151C8.43191 15.8928 7.01599 16.1327 5.90839 15.0966L5.84826 15.0387C4.73222 13.9358 4.93848 12.4475 5.00746 12.0929L5.02447 12.0148Z" fill="url(#paint12_linear_1_361)"/>
<path d="M10.2973 5.94611C10.2973 5.94611 11.6029 7.04419 11.3123 8.70231L11.2978 8.77917C10.9723 10.3777 9.42571 10.9206 9.42571 10.9206L9.37027 10.8701C9.12879 10.6414 8.19097 9.65153 8.39837 8.24171L8.41069 8.16437C8.70067 6.50939 10.2913 5.94823 10.2973 5.94611Z" fill="url(#paint13_linear_1_361)"/>
<defs>
<linearGradient id="paint0_linear_1_361" x1="14.8997" y1="5.20008" x2="14.8997" y2="24.6001" gradientUnits="userSpaceOnUse">
<stop stop-color="#FFEB7F"/>
<stop offset="1" stop-color="#FFE453"/>
</linearGradient>
<linearGradient id="paint1_linear_1_361" x1="14.9006" y1="5.19965" x2="14.9006" y2="24.5997" gradientUnits="userSpaceOnUse">
<stop stop-color="#FFEB7F"/>
<stop offset="1" stop-color="#FFE453"/>
</linearGradient>
<linearGradient id="paint2_linear_1_361" x1="14.8996" y1="5.20001" x2="14.8996" y2="24.6" gradientUnits="userSpaceOnUse">
<stop stop-color="#FFEB7F"/>
<stop offset="1" stop-color="#FFE453"/>
</linearGradient>
<linearGradient id="paint3_linear_1_361" x1="14.8994" y1="5.20033" x2="14.8994" y2="24.6003" gradientUnits="userSpaceOnUse">
<stop stop-color="#FFEB7F"/>
<stop offset="1" stop-color="#FFE453"/>
</linearGradient>
<linearGradient id="paint4_linear_1_361" x1="14.9006" y1="5.20021" x2="14.9006" y2="24.6002" gradientUnits="userSpaceOnUse">
<stop stop-color="#FFEB7F"/>
<stop offset="1" stop-color="#FFE453"/>
</linearGradient>
<linearGradient id="paint5_linear_1_361" x1="14.8998" y1="5.20023" x2="14.8998" y2="24.6002" gradientUnits="userSpaceOnUse">
<stop stop-color="#FFEB7F"/>
<stop offset="1" stop-color="#FFE453"/>
</linearGradient>
<linearGradient id="paint6_linear_1_361" x1="14.9" y1="5.20032" x2="14.9" y2="24.6003" gradientUnits="userSpaceOnUse">
<stop stop-color="#FFEB7F"/>
<stop offset="1" stop-color="#FFE453"/>
</linearGradient>
<linearGradient id="paint7_linear_1_361" x1="14.9005" y1="5.19998" x2="14.9005" y2="24.6" gradientUnits="userSpaceOnUse">
<stop stop-color="#FFEB7F"/>
<stop offset="1" stop-color="#FFE453"/>
</linearGradient>
<linearGradient id="paint8_linear_1_361" x1="14.8997" y1="5.20001" x2="14.8997" y2="24.6" gradientUnits="userSpaceOnUse">
<stop stop-color="#FFEB7F"/>
<stop offset="1" stop-color="#FFE453"/>
</linearGradient>
<linearGradient id="paint9_linear_1_361" x1="14.8996" y1="5.20023" x2="14.8996" y2="24.6002" gradientUnits="userSpaceOnUse">
<stop stop-color="#FFEB7F"/>
<stop offset="1" stop-color="#FFE453"/>
</linearGradient>
<linearGradient id="paint10_linear_1_361" x1="14.8994" y1="5.20014" x2="14.8994" y2="24.6001" gradientUnits="userSpaceOnUse">
<stop stop-color="#FFEB7F"/>
<stop offset="1" stop-color="#FFE453"/>
</linearGradient>
<linearGradient id="paint11_linear_1_361" x1="14.9001" y1="5.20015" x2="14.9001" y2="24.6001" gradientUnits="userSpaceOnUse">
<stop stop-color="#FFEB7F"/>
<stop offset="1" stop-color="#FFE453"/>
</linearGradient>
<linearGradient id="paint12_linear_1_361" x1="14.9003" y1="5.20022" x2="14.9003" y2="24.6002" gradientUnits="userSpaceOnUse">
<stop stop-color="#FFEB7F"/>
<stop offset="1" stop-color="#FFE453"/>
</linearGradient>
<linearGradient id="paint13_linear_1_361" x1="14.9005" y1="5.20001" x2="14.9005" y2="24.6" gradientUnits="userSpaceOnUse">
<stop stop-color="#FFEB7F"/>
<stop offset="1" stop-color="#FFE453"/>
</linearGradient>
</defs>
</svg>
