<svg width="30" height="30" viewBox="0 0 30 30" fill="none" xmlns="http://www.w3.org/2000/svg">
<path d="M13.0874 11.5453H16.9124V17.0194C16.9124 17.7236 16.3415 18.2944 15.6374 18.2944H14.3624C13.6582 18.2944 13.0874 17.7236 13.0874 17.0194V11.5453Z" fill="white"/>
<path d="M13.0874 11.5453H16.9124V17.0194C16.9124 17.7236 16.3415 18.2944 15.6374 18.2944H14.3624C13.6582 18.2944 13.0874 17.7236 13.0874 17.0194V11.5453Z" fill="url(#paint0_linear_1_344)"/>
<path d="M15 5.64815C6.07507 5.13365 4.80005 8.84573 4.80005 11.8827V16.2697C4.80005 23.5588 9.47507 24.7062 11.8126 24.3686V22.3984C11.8126 21.5628 11.2544 20.8428 10.5014 20.4802C4.24839 17.4678 7.65063 9.80819 12.0064 13.4544C12.7801 14.1021 13.0875 15.1316 13.0875 16.1407V16.9447L15 13.9076V5.64815Z" fill="white"/>
<path d="M15 5.64815C6.07507 5.13365 4.80005 8.84573 4.80005 11.8827V16.2697C4.80005 23.5588 9.47507 24.7062 11.8126 24.3686V22.3984C11.8126 21.5628 11.2544 20.8428 10.5014 20.4802C4.24839 17.4678 7.65063 9.80819 12.0064 13.4544C12.7801 14.1021 13.0875 15.1316 13.0875 16.1407V16.9447L15 13.9076V5.64815Z" fill="url(#paint1_linear_1_344)"/>
<path d="M15 5.64815C23.925 5.13365 25.2 8.84573 25.2 11.8827V16.2697C25.2 23.5588 20.525 24.7062 18.1875 24.3686V22.3984C18.1875 21.5628 18.7457 20.8428 19.4986 20.4802C25.7516 17.4678 22.3494 9.80819 17.9937 13.4544C17.22 14.1021 16.9125 15.1316 16.9125 16.1407V16.9447L15 13.9076V5.64815Z" fill="white"/>
<path d="M15 5.64815C23.925 5.13365 25.2 8.84573 25.2 11.8827V16.2697C25.2 23.5588 20.525 24.7062 18.1875 24.3686V22.3984C18.1875 21.5628 18.7457 20.8428 19.4986 20.4802C25.7516 17.4678 22.3494 9.80819 17.9937 13.4544C17.22 14.1021 16.9125 15.1316 16.9125 16.1407V16.9447L15 13.9076V5.64815Z" fill="url(#paint2_linear_1_344)"/>
<defs>
<linearGradient id="paint0_linear_1_344" x1="14.9998" y1="5.59976" x2="14.9998" y2="24.4206" gradientUnits="userSpaceOnUse">
<stop stop-color="#CE8AFF"/>
<stop offset="1" stop-color="#B753FF"/>
</linearGradient>
<linearGradient id="paint1_linear_1_344" x1="15" y1="5.60001" x2="15" y2="24.4208" gradientUnits="userSpaceOnUse">
<stop stop-color="#CE8AFF"/>
<stop offset="1" stop-color="#B753FF"/>
</linearGradient>
<linearGradient id="paint2_linear_1_344" x1="15" y1="5.60001" x2="15" y2="24.4208" gradientUnits="userSpaceOnUse">
<stop stop-color="#CE8AFF"/>
<stop offset="1" stop-color="#B753FF"/>
</linearGradient>
</defs>
</svg>
