<svg width="30" height="30" viewBox="0 0 30 30" fill="none" xmlns="http://www.w3.org/2000/svg">
<path d="M21.1865 19.1226C21.4415 18.8719 21.8515 18.8752 22.1025 19.1303L24.1495 21.2118C24.4265 21.0728 24.7391 20.9944 25.0701 20.9944C26.2063 20.9944 27.1275 21.9156 27.1277 23.052C27.1277 24.1884 26.2065 25.1098 25.0701 25.1098C23.9337 25.1098 23.0123 24.1884 23.0123 23.052C23.0125 22.7192 23.0917 22.405 23.2321 22.1268L21.1789 20.0386C20.9279 19.7836 20.9313 19.3735 21.1865 19.1226ZM21.6211 16.5873L23.1785 15.0476C23.3879 14.8405 23.7255 14.8425 23.9327 15.0519C24.1399 15.2614 24.1381 15.5991 23.9287 15.8062L17.8284 21.8386C17.6189 22.0458 17.2811 22.044 17.0739 21.8346C16.8668 21.625 16.8687 21.2872 17.0782 21.08L18.6296 19.5457L15.9034 17.0824L19.2886 14.0238L21.6211 16.5873ZM18.5308 13.191L15.0636 16.3238L11.5964 13.191L15.0636 9.38085L18.5308 13.191ZM14.3024 8.54453L10.761 12.4361L6.77979 8.83905V4.79999H10.895L14.3024 8.54453Z" fill="url(#paint0_linear_1_380)"/>
<path d="M7.1153 23.0521C7.1153 24.1885 6.19406 25.1097 5.05764 25.1097C3.92124 25.1097 3 24.1885 3 23.0521C3 21.9157 3.92124 20.9945 5.05764 20.9945C6.19406 20.9945 7.1153 21.9157 7.1153 23.0521Z" fill="url(#paint1_linear_1_380)"/>
<path d="M6.58774 22.4401L5.66406 21.5317L8.02574 19.1303C8.2766 18.8752 8.68674 18.8718 8.9418 19.1226C9.19688 19.3735 9.2003 19.7836 8.94944 20.0387L6.58774 22.4401Z" fill="url(#paint2_linear_1_380)"/>
<path d="M13.0493 21.0802C13.2588 21.2874 13.2606 21.6252 13.0535 21.8346C12.8463 22.0442 12.5086 22.046 12.2991 21.8388L6.19888 15.8065C5.9894 15.5994 5.98752 15.2616 6.19468 15.0521C6.40184 14.8426 6.73962 14.8407 6.9491 15.0479L13.0493 21.0802Z" fill="url(#paint3_linear_1_380)"/>
<path d="M23.3473 8.83909L11.4969 19.5465L11.4206 19.6226L8.44849 16.6505L19.2321 4.79999H23.3473V8.83909Z" fill="url(#paint4_linear_1_380)"/>
<defs>
<linearGradient id="paint0_linear_1_380" x1="16.9537" y1="4.79999" x2="16.9537" y2="25.1098" gradientUnits="userSpaceOnUse">
<stop stop-color="#99C5FF"/>
<stop offset="1" stop-color="#539EFF"/>
</linearGradient>
<linearGradient id="paint1_linear_1_380" x1="13.1739" y1="4.80014" x2="13.1739" y2="25.1097" gradientUnits="userSpaceOnUse">
<stop stop-color="#99C5FF"/>
<stop offset="1" stop-color="#539EFF"/>
</linearGradient>
<linearGradient id="paint2_linear_1_380" x1="13.1744" y1="4.79992" x2="13.1744" y2="25.1095" gradientUnits="userSpaceOnUse">
<stop stop-color="#99C5FF"/>
<stop offset="1" stop-color="#539EFF"/>
</linearGradient>
<linearGradient id="paint3_linear_1_380" x1="13.1737" y1="4.80023" x2="13.1737" y2="25.1098" gradientUnits="userSpaceOnUse">
<stop stop-color="#99C5FF"/>
<stop offset="1" stop-color="#539EFF"/>
</linearGradient>
<linearGradient id="paint4_linear_1_380" x1="13.1735" y1="4.79999" x2="13.1735" y2="25.1096" gradientUnits="userSpaceOnUse">
<stop stop-color="#99C5FF"/>
<stop offset="1" stop-color="#539EFF"/>
</linearGradient>
</defs>
</svg>
