<svg width="30" height="30" viewBox="0 0 30 30" fill="none" xmlns="http://www.w3.org/2000/svg">
<path d="M15 4.20001C20.9646 4.20001 25.8 9.03533 25.8 15C25.8 20.9646 20.9646 25.8 15 25.8C9.03527 25.8 4.19995 20.9646 4.19995 15C4.19995 9.03533 9.03527 4.20001 15 4.20001ZM24.406 14.5977C22.7038 19.21 20.0956 22.4312 16.39 24.8308C18.7208 24.3644 25.4268 21.1556 24.406 14.5977ZM14.9845 7.99709C11.985 7.99709 9.55329 11.1325 9.55327 15C9.55327 18.8676 11.985 22.003 14.9845 22.003C17.984 22.0028 20.4156 18.8676 20.4156 15C20.4156 11.1325 17.984 7.99715 14.9845 7.99709ZM11.6703 6.69961C9.32703 7.09861 4.98755 9.05789 5.81871 15.6426C6.73937 11.3308 8.55801 8.51285 11.6703 6.69961Z" fill="url(#paint0_linear_1_355)"/>
<defs>
<linearGradient id="paint0_linear_1_355" x1="15" y1="4.20001" x2="15" y2="25.8" gradientUnits="userSpaceOnUse">
<stop stop-color="#72FFE0"/>
<stop offset="1" stop-color="#033930"/>
</linearGradient>
</defs>
</svg>
